<svg width="53" height="51" viewBox="0 0 53 51" fill="none" xmlns="http://www.w3.org/2000/svg">
<rect width="53" height="51" fill="#1E1E1E"/>
<rect width="1728" height="1117" transform="translate(-1340 -76)" fill="black"/>
<path d="M17.7272 41.0651C17.7272 41.276 17.4815 41.4448 17.1716 41.4448C16.819 41.4764 16.5732 41.3077 16.5732 41.0651C16.5732 40.8542 16.819 40.6855 17.1288 40.6855C17.4494 40.6538 17.7272 40.8226 17.7272 41.0651ZM14.404 40.5906C14.3292 40.8015 14.5429 41.044 14.8635 41.1073C15.1413 41.2128 15.4619 41.1073 15.526 40.8964C15.5901 40.6855 15.3871 40.4429 15.0665 40.348C14.7887 40.2742 14.4788 40.3797 14.404 40.5906ZM19.127 40.4113C18.8171 40.4851 18.6034 40.6855 18.6355 40.928C18.6675 41.1389 18.9454 41.276 19.2659 41.2022C19.5758 41.1284 19.7895 40.928 19.7575 40.7171C19.7254 40.5167 19.4369 40.3797 19.127 40.4113ZM26.1581 0C11.3373 0 0 11.1047 0 25.7316C0 37.4268 7.45847 47.4348 18.1119 50.957C19.4796 51.1996 19.9605 50.3665 19.9605 49.681C19.9605 49.0272 19.9284 45.4205 19.9284 43.2059C19.9284 43.2059 12.4486 44.7878 10.8778 40.0633C10.8778 40.0633 9.65968 36.9945 7.90726 36.2035C7.90726 36.2035 5.46028 34.5479 8.07823 34.5795C8.07823 34.5795 10.7389 34.7904 12.2028 37.3003C14.5429 41.371 18.4645 40.2004 19.9925 39.5044C20.2383 37.817 20.9329 36.6465 21.7022 35.9504C15.729 35.2966 9.70242 34.4424 9.70242 24.2974C9.70242 21.3973 10.5145 19.942 12.2242 18.0859C11.9464 17.4005 11.0381 14.5742 12.502 10.9254C14.7353 10.2399 19.875 13.7727 19.875 13.7727C22.0121 13.1822 24.3095 12.8764 26.5855 12.8764C28.8615 12.8764 31.1589 13.1822 33.296 13.7727C33.296 13.7727 38.4357 10.2294 40.669 10.9254C42.1329 14.5848 41.2246 17.4005 40.9468 18.0859C42.6565 19.9525 43.7036 21.4079 43.7036 24.2974C43.7036 34.474 37.4099 35.2861 31.4367 35.9504C32.4198 36.7836 33.2532 38.3654 33.2532 40.8437C33.2532 44.3976 33.2212 48.7952 33.2212 49.6599C33.2212 50.3454 33.7127 51.1785 35.0698 50.9359C45.7552 47.4348 53 37.4268 53 25.7316C53 11.1047 40.9788 0 26.1581 0ZM10.3863 36.3723C10.2474 36.4777 10.2794 36.7203 10.4611 36.9206C10.6321 37.0894 10.8778 37.1632 11.0167 37.0261C11.1556 36.9206 11.1236 36.6781 10.9419 36.4777C10.771 36.309 10.5252 36.2352 10.3863 36.3723ZM9.23226 35.5181C9.15746 35.6552 9.26431 35.8239 9.47802 35.9293C9.64899 36.0348 9.8627 36.0032 9.9375 35.8555C10.0123 35.7184 9.90544 35.5497 9.69173 35.4442C9.47802 35.381 9.30706 35.4126 9.23226 35.5181ZM12.6944 39.2723C12.5234 39.4094 12.5875 39.7258 12.8333 39.9262C13.079 40.1687 13.3889 40.2004 13.5278 40.0316C13.6667 39.8945 13.6026 39.5782 13.3889 39.3778C13.1538 39.1353 12.8333 39.1036 12.6944 39.2723ZM11.4762 37.7221C11.3052 37.8276 11.3052 38.1018 11.4762 38.3443C11.6472 38.5869 11.9357 38.6923 12.0746 38.5869C12.2456 38.4498 12.2456 38.1756 12.0746 37.933C11.925 37.6905 11.6472 37.585 11.4762 37.7221Z" fill="white"/>
</svg>
